<?xml version="1.0" encoding="utf-8"?>
<!-- Generator: Adobe Illustrator 27.3.1, SVG Export Plug-In . SVG Version: 6.00 Build 0)  -->
<svg version="1.1" id="Layer_1" xmlns="http://www.w3.org/2000/svg" xmlns:xlink="http://www.w3.org/1999/xlink" x="0px" y="0px"
	 viewBox="0 0 32 32" style="enable-background:new 0 0 32 32;" xml:space="preserve">
<style type="text/css">
	.st0{fill:url(#SVGID_1_);}
	.st1{fill:url(#SVGID_00000003070165814887658040000001385067514739957399_);}
</style>
<linearGradient id="SVGID_1_" gradientUnits="userSpaceOnUse" x1="-0.2384" y1="1.6665" x2="29.961" y2="30.9588">
	<stop  offset="0" style="stop-color:#0099F7"/>
	<stop  offset="0.1478" style="stop-color:#03A4DB"/>
	<stop  offset="0.4675" style="stop-color:#0ABF94"/>
	<stop  offset="0.9313" style="stop-color:#15EA23"/>
	<stop  offset="1" style="stop-color:#17F112"/>
</linearGradient>
<path class="st0" d="M27.8,10.6c-1.6-0.9-3.8-1.6-6.4-2c-0.8-0.1-1.6,0.4-1.7,1.3s0.4,1.6,1.3,1.7c2.2,0.3,4.1,0.9,5.4,1.6
	c1.1,0.6,1.7,1.3,1.7,2.1c0,0.6-1.1,1.2-2.8,1.7c-2.1,0.6-5.3,0.9-9.1,0.9c-3.9,0-7-0.3-9.1-0.8c-1.3-0.3-2-0.7-2.3-1
	c-0.4-0.3-0.5-0.6-0.5-0.7c0,0,0,0,0,0c0-0.7,0.6-1.4,1.7-2.1c1.3-0.7,3.1-1.3,5.4-1.6c0.8-0.1,1.4-0.9,1.3-1.7s-0.9-1.4-1.7-1.3
	c-2.6,0.4-4.8,1.1-6.4,2c-2.6,1.5-3.2,3.4-3.2,4.6c0,2,0.4,4,1.2,5.8c0.8,1.8,1.8,3.4,3.2,4.7c1.4,1.4,3,2.4,4.7,3.2
	c1.8,0.8,3.8,1.2,5.8,1.2s4-0.4,5.8-1.2c1.8-0.8,3.4-1.8,4.7-3.2s2.4-3,3.2-4.7c0.8-1.8,1.2-3.8,1.2-5.8
	C30.9,14,30.4,12.1,27.8,10.6z M16,27.2c-5.1,0-9.4-3.2-11.1-7.7c0.4,0.1,0.8,0.3,1.3,0.4c2.4,0.6,5.7,0.9,9.9,0.9
	c4.1,0,7.4-0.3,9.9-1c0.5-0.1,0.9-0.3,1.3-0.4C25.5,24,21.1,27.2,16,27.2z"/>
<linearGradient id="SVGID_00000020368661518922857640000001985621063857607087_" gradientUnits="userSpaceOnUse" x1="10.1872" y1="-1.6677" x2="39.3803" y2="29.6746">
	<stop  offset="0" style="stop-color:#0099F7"/>
	<stop  offset="0.1478" style="stop-color:#03A4DB"/>
	<stop  offset="0.4675" style="stop-color:#0ABF94"/>
	<stop  offset="0.9313" style="stop-color:#15EA23"/>
	<stop  offset="1" style="stop-color:#17F112"/>
</linearGradient>
<circle style="fill:url(#SVGID_00000020368661518922857640000001985621063857607087_);" cx="16" cy="4.6" r="2.8"/>
</svg>
