<?xml version="1.0" encoding="utf-8"?>
<!-- Generator: Adobe Illustrator 27.3.1, SVG Export Plug-In . SVG Version: 6.00 Build 0)  -->
<svg version="1.1" xmlns="http://www.w3.org/2000/svg" xmlns:xlink="http://www.w3.org/1999/xlink" x="0px" y="0px"
	 viewBox="0 0 1024 1024" style="enable-background:new 0 0 1024 1024;" xml:space="preserve">
<style type="text/css">
	.st0{display:none;}
	.st1{display:inline;fill:url(#SVGID_1_);}
	.st2{display:inline;fill:url(#SVGID_00000129893289901211703250000009088894252782991765_);}
	.st3{display:inline;fill:url(#SVGID_00000139254674941902294530000002210853337939038653_);}
	.st4{display:inline;fill:url(#SVGID_00000066512040369684659510000010392473472873297083_);}
	.st5{display:inline;}
	.st6{display:none;fill:url(#SVGID_00000169549995903613792350000015133381762402373802_);}
	.st7{display:none;fill:url(#SVGID_00000022545026429696483580000014424622498231797911_);}
	.st8{display:none;fill:none;stroke:#000000;stroke-width:64;stroke-miterlimit:10;}
	.st9{display:none;fill:none;stroke:#000000;stroke-width:72;stroke-miterlimit:10;}
	.st10{fill:url(#SVGID_00000086687226630178378220000015136415185229713826_);}
	.st11{display:none;fill:none;stroke:#000000;stroke-width:64;stroke-linecap:round;stroke-linejoin:round;stroke-miterlimit:10;}
	.st12{fill:url(#SVGID_00000178197113067252789950000011760260161119719053_);}
	.st13{fill:url(#SVGID_00000102545712096159382660000004250881644863806340_);}
	.st14{fill:url(#SVGID_00000026851664964707145160000004152845632566945188_);}
	.st15{fill:url(#SVGID_00000119815764486291034300000009243748067388222634_);}
	.st16{fill:url(#SVGID_00000098900855320250901760000010314422571600428690_);}
</style>
<g id="Layer_1" class="st0">
	
		<linearGradient id="SVGID_1_" gradientUnits="userSpaceOnUse" x1="-9.1784" y1="954.6714" x2="957.2033" y2="17.3195" gradientTransform="matrix(1 0 0 -1 0 1024)">
		<stop  offset="0" style="stop-color:#0099F7"/>
		<stop  offset="0.1478" style="stop-color:#03A4DB"/>
		<stop  offset="0.4675" style="stop-color:#0ABF94"/>
		<stop  offset="0.9313" style="stop-color:#15EA23"/>
		<stop  offset="1" style="stop-color:#17F112"/>
	</linearGradient>
	<path class="st1" d="M887.4,356.3C836.6,327,765.7,304.8,682.3,292c-26.2-4-50.7,14-54.7,40.2s14,50.7,40.2,54.7
		c71.7,11,131.1,29.2,171.8,52.6c35.4,20.4,53.3,42.5,53.3,65.6c0,17.9-35.3,38.8-89.8,53.2C734.5,576.4,633.9,586,512,586
		c-124.9,0-222.9-9-291.2-26.7c-42.2-11-64-23.1-74.8-31.4c-13.9-10.6-14.8-18.2-14.9-21.9c0-0.2,0-0.5,0-0.7
		c0-23.2,17.9-45.2,53.3-65.6c40.6-23.4,100-41.6,171.8-52.6c26.2-4,44.2-28.5,40.2-54.7s-28.5-44.2-54.7-40.2
		c-83.4,12.8-154.3,35-205.1,64.3C52.8,404.6,35.2,463.9,35.2,505.1c0,64.4,12.6,126.8,37.5,185.6c24,56.8,58.4,107.8,102.2,151.6
		c43.8,43.8,94.8,78.2,151.6,102.2C385.2,969.3,447.6,982,512,982s126.8-12.6,185.6-37.5c56.8-24,107.8-58.4,151.6-102.2
		s78.2-94.8,102.2-151.6c24.9-58.8,37.5-121.3,37.5-185.6C988.8,463.9,971.2,404.6,887.4,356.3z M512,886
		c-162.7,0-301.9-102.5-356.3-246.4c12.6,4.6,26.3,8.8,41,12.6C272.8,671.9,378.9,682,512,682c131.9,0,238-10.4,315.5-30.8
		c14.9-3.9,28.6-8.2,41.3-12.8C814.7,782.8,675.2,886,512,886z"/>
	
		<linearGradient id="SVGID_00000056419204347916362730000002568882687119388824_" gradientUnits="userSpaceOnUse" x1="324.442" y1="1061.366" x2="1258.6208" y2="58.4133" gradientTransform="matrix(1 0 0 -1 0 1024)">
		<stop  offset="0" style="stop-color:#0099F7"/>
		<stop  offset="0.1478" style="stop-color:#03A4DB"/>
		<stop  offset="0.4675" style="stop-color:#0ABF94"/>
		<stop  offset="0.9313" style="stop-color:#15EA23"/>
		<stop  offset="1" style="stop-color:#17F112"/>
	</linearGradient>
	<circle style="display:inline;fill:url(#SVGID_00000056419204347916362730000002568882687119388824_);" cx="512" cy="164" r="90"/>
</g>
<g id="Layer_1_copy" class="st0">
	
		<linearGradient id="SVGID_00000111153656732138611630000000377052241670954410_" gradientUnits="userSpaceOnUse" x1="-3.1336" y1="948.795" x2="952.0055" y2="22.3481" gradientTransform="matrix(1 0 0 -1 0 1024)">
		<stop  offset="0" style="stop-color:#0099F7"/>
		<stop  offset="0.1478" style="stop-color:#03A4DB"/>
		<stop  offset="0.4675" style="stop-color:#0ABF94"/>
		<stop  offset="0.9313" style="stop-color:#15EA23"/>
		<stop  offset="1" style="stop-color:#17F112"/>
	</linearGradient>
	<path style="display:inline;fill:url(#SVGID_00000111153656732138611630000000377052241670954410_);" d="M512,977
		c-63.5,0-125.3-12.5-183.6-37.1c-56.2-23.7-106.6-57.8-150-101.1c-43.4-43.4-77.4-93.8-101.1-150c-24.6-58.1-37.1-119.9-37.1-183.7
		c0-39.9,17.2-97.4,98.9-144.3c50.2-29,120.5-51,203.4-63.7c2.2-0.3,4.4-0.5,6.5-0.5c21,0,39.3,15.7,42.5,36.5
		c3.6,23.4-12.6,45.4-36,49c-72.4,11.1-132.4,29.5-173.5,53.2c-37,21.3-55.8,44.9-55.8,69.9l0,0.8c0.2,5.6,2.1,14.5,16.9,25.7
		c11,8.5,33.3,21,76.6,32.3C288.3,582,386.7,591,512,591c122.2,0,223.3-9.6,292.4-27.9c58.6-15.5,93.5-37.2,93.5-58
		c0-25.1-18.8-48.6-55.8-69.9C800.8,411.4,740.8,393,668.6,382c-11.4-1.7-21.4-7.8-28.2-17c-6.8-9.3-9.6-20.6-7.9-32
		c3.2-20.8,21.4-36.5,42.5-36.5c2.2,0,4.4,0.2,6.5,0.5c82.8,12.7,153.2,34.7,203.4,63.7c81.6,47.1,98.9,104.5,99,144.5
		c0,63.7-12.5,125.5-37.1,183.6c-23.7,56.2-57.8,106.6-101.1,150c-43.4,43.4-93.8,77.4-150,101.1C637.5,964.5,575.7,977,512,977z
		 M151,641.4C207.5,790.7,352.5,891,512,891c160,0,305.3-100.8,361.5-250.8l3.8-10.1l-10.2,3.7c-13,4.7-26.7,9-40.9,12.7
		C749,666.7,643.3,677,512,677c-132.4,0-238.1-10-314-29.6c-14.6-3.8-28.2-8-40.5-12.5l-10.3-3.7L151,641.4z"/>
	
		<linearGradient id="SVGID_00000118357609841239642730000014074375149648695450_" gradientUnits="userSpaceOnUse" x1="334.9445" y1="1050.0903" x2="1216.8131" y2="103.2989" gradientTransform="matrix(1 0 0 -1 0 1024)">
		<stop  offset="0" style="stop-color:#0099F7"/>
		<stop  offset="0.1478" style="stop-color:#03A4DB"/>
		<stop  offset="0.4675" style="stop-color:#0ABF94"/>
		<stop  offset="0.9313" style="stop-color:#15EA23"/>
		<stop  offset="1" style="stop-color:#17F112"/>
	</linearGradient>
	<circle style="display:inline;fill:url(#SVGID_00000118357609841239642730000014074375149648695450_);" cx="512" cy="164" r="85"/>
	<g class="st5">
		<path d="M525.3,849.3c-8.1,0-16.1-3.5-21.6-9.9L426.3,750c-77.2-89.2-77.2-234.3,0-323.5l37.1-42.8c29.4-34,42-82.7,33.7-130.2
			c-2.2-12.6,4.4-25.2,16-30.7c11.6-5.5,25.4-2.6,33.9,7.2l77.3,89.4c77.3,89.2,77.3,234.3,0,323.5l-37,42.7
			c-29.4,34-42,82.7-33.8,130.3c2.2,12.6-4.3,25.2-15.9,30.7C533.7,848.4,529.4,849.3,525.3,849.3L525.3,849.3z M552.8,324.1
			c-6.9,36.2-22.7,69.9-46.2,97.1L469.5,464c-59.3,68.5-59.3,180.1,0,248.6l28.3,32.6c6.9-36.1,22.7-69.9,46.2-97.1l37-42.8
			c59.4-68.5,59.4-180,0-248.6L552.8,324.1z"/>
		<path d="M825.6,963.7H196.4c-15.8,0-28.6-12.8-28.6-28.6c0-15.8,12.8-28.6,28.6-28.6h629.3c15.8,0,28.6,12.8,28.6,28.6
			C854.2,950.9,841.4,963.7,825.6,963.7z"/>
	</g>
</g>
<g id="Layer_3">
	<path class="st0" d="M521.3,678.2c-4.8,0-9.4-2-12.7-5.8l-45.4-52.4c-45.3-52.4-45.3-137.5,0-189.8l21.8-25.1
		c17.3-19.9,24.6-48.5,19.8-76.4c-1.3-7.4,2.6-14.8,9.4-18c6.8-3.2,14.9-1.5,19.9,4.2l45.4,52.5c45.4,52.3,45.4,137.5,0,189.8
		l-21.7,25.1c-17.3,19.9-24.6,48.5-19.8,76.4c1.3,7.4-2.5,14.8-9.3,18C526.2,677.6,523.8,678.2,521.3,678.2L521.3,678.2z M537.5,370
		c-4.1,21.2-13.3,41-27.1,57l-21.8,25.1c-34.8,40.2-34.8,105.7,0,145.9l16.6,19.1c4.1-21.2,13.3-41,27.1-57L554,535
		c34.8-40.2,34.8-105.6,0-145.9L537.5,370z"/>
	
		<linearGradient id="SVGID_00000183951672455027826480000010921143668698759093_" gradientUnits="userSpaceOnUse" x1="255.4014" y1="837.329" x2="836.3973" y2="213.5605" gradientTransform="matrix(1 0 0 -1 0 1024)">
		<stop  offset="0" style="stop-color:#0099F7"/>
		<stop  offset="0.1478" style="stop-color:#03A4DB"/>
		<stop  offset="0.4675" style="stop-color:#0ABF94"/>
		<stop  offset="0.9313" style="stop-color:#15EA23"/>
		<stop  offset="1" style="stop-color:#17F112"/>
	</linearGradient>
	<circle style="display:none;fill:url(#SVGID_00000183951672455027826480000010921143668698759093_);" cx="372" cy="311.9" r="56"/>
	
		<linearGradient id="SVGID_00000160899198434046061970000012276345947590268070_" gradientUnits="userSpaceOnUse" x1="105.4014" y1="837.329" x2="686.3973" y2="213.5605" gradientTransform="matrix(1 0 0 -1 0 1024)">
		<stop  offset="0" style="stop-color:#0099F7"/>
		<stop  offset="0.1478" style="stop-color:#03A4DB"/>
		<stop  offset="0.4675" style="stop-color:#0ABF94"/>
		<stop  offset="0.9313" style="stop-color:#15EA23"/>
		<stop  offset="1" style="stop-color:#17F112"/>
	</linearGradient>
	<circle style="display:none;fill:url(#SVGID_00000160899198434046061970000012276345947590268070_);" cx="222" cy="311.9" r="56"/>
	<path class="st0" d="M877.9,580.4c-11.9,0-17.6-33.9-52.9-33.9c-35.4,0-41.2,33.9-52.9,33.9c-9.2,0-20.8-33.9-52.8-33.9
		c-32,0-44.3,33.9-52.9,33.9c-8.7,0-20.5-33.9-52.8-33.9c-32.3,0-43.7,33.9-52.7,33.9c-8.8,0-20.3-33.9-52.9-33.9
		c-35.4,0-42.4,33.9-53,33.9c-11.9,0-17.6-33.9-52.9-33.9c-35.4,0-41.2,33.9-52.9,33.9c-9.2,0-20.8-33.9-52.8-33.9
		c-32,0-44.3,33.9-52.9,33.9c-8.7,0-20.5-33.9-52.8-33.9c-32.3,0-43.7,33.9-52.7,33.9c-8.8,0-20.3-33.9-52.9-33.9V585
		c10.5,0,18.3,33.9,52.9,33.9c35.6,0,41-33.9,52.7-33.9c10.8,0,18.9,33.9,52.8,33.9c33,0,43.5-33.9,52.9-33.9
		c11.3,0,18.6,33.9,52.8,33.9c33.5,0,42.6-33.9,52.9-33.9c11.5,0,17.6,33.9,52.9,33.9c34.3,0,43.4-33.9,53-33.9
		c10.5,0,18.3,33.9,52.9,33.9c35.6,0,41-33.9,52.7-33.9c10.8,0,18.9,33.9,52.8,33.9c33,0,43.5-33.9,52.9-33.9
		c11.3,0,18.6,33.9,52.8,33.9c33.5,0,42.6-33.9,52.9-33.9c11.5,0,17.6,33.9,52.9,33.9c34.3,0,43.4-33.9,53-33.9v-38.4
		C895.5,546.6,888.6,580.4,877.9,580.4z"/>
	<path class="st8" d="M808,745.9H216c-7.7,0-14-6.3-14-14V479.9c0-7.7,6.3-14,14-14H808c7.7,0,14,6.3,14,14v251.9
		C822,739.6,815.7,745.9,808,745.9z"/>
	<path class="st9" d="M824.6,872.9H199.4C128.8,872.9,71,815.1,71,744.5V279.5c0-70.6,57.8-128.5,128.5-128.5h625.2
		c70.6,0,128.5,57.8,128.5,128.5v464.9C953,815.1,895.2,872.9,824.6,872.9z"/>
	
		<linearGradient id="SVGID_00000024699754992858280740000002587891249449362097_" gradientUnits="userSpaceOnUse" x1="132.9198" y1="66.1646" x2="927.9355" y2="1001.1809">
		<stop  offset="5.050956e-03" style="stop-color:#0099F7"/>
		<stop  offset="0.1478" style="stop-color:#03A4DB"/>
		<stop  offset="0.4675" style="stop-color:#0ABF94"/>
		<stop  offset="0.9313" style="stop-color:#15EA23"/>
		<stop  offset="1" style="stop-color:#17F112"/>
	</linearGradient>
	<path style="fill:url(#SVGID_00000024699754992858280740000002587891249449362097_);" d="M824.6,908.9H199.4
		C108.7,908.9,35,835.1,35,744.5V279.5c0-90.7,73.8-164.5,164.5-164.5h625.2c90.7,0,164.5,73.8,164.5,164.5v464.9
		C989,835.1,915.3,908.9,824.6,908.9z M199.4,187.1c-51,0-92.5,41.5-92.5,92.5v464.9c0,51,41.5,92.5,92.5,92.5h625.2
		c51,0,92.5-41.5,92.5-92.5V279.5c0-51-41.5-92.5-92.5-92.5H199.4z"/>
	<path class="st11" d="M204,465.9h616"/>
	
		<linearGradient id="SVGID_00000152247475998787961420000016186220251525429661_" gradientUnits="userSpaceOnUse" x1="112.8684" y1="-12.2835" x2="950.1451" y2="990.8391">
		<stop  offset="0.1478" style="stop-color:#03A4DB"/>
		<stop  offset="0.4675" style="stop-color:#0ABF94"/>
		<stop  offset="0.9313" style="stop-color:#15EA23"/>
		<stop  offset="1" style="stop-color:#17F112"/>
	</linearGradient>
	<path style="fill:url(#SVGID_00000152247475998787961420000016186220251525429661_);" d="M820,497.9H204c-17.7,0-32-14.3-32-32
		s14.3-32,32-32h616c17.7,0,32,14.3,32,32S837.7,497.9,820,497.9z"/>
	
		<linearGradient id="SVGID_00000170279904457426573780000006800803377415186308_" gradientUnits="userSpaceOnUse" x1="134.139" y1="788.2242" x2="487.3277" y2="409.0339" gradientTransform="matrix(1 0 0 -1 0 1024)">
		<stop  offset="0" style="stop-color:#03A4DB"/>
		<stop  offset="0.4675" style="stop-color:#0ABF94"/>
		<stop  offset="0.9971" style="stop-color:#15EA23"/>
	</linearGradient>
	<circle style="fill:url(#SVGID_00000170279904457426573780000006800803377415186308_);" cx="205" cy="311.9" r="34"/>
	
		<linearGradient id="SVGID_00000179630325378778308970000015617919607261341074_" gradientUnits="userSpaceOnUse" x1="259.139" y1="788.2242" x2="612.3277" y2="409.0339" gradientTransform="matrix(1 0 0 -1 0 1024)">
		<stop  offset="0" style="stop-color:#03A4DB"/>
		<stop  offset="0.4675" style="stop-color:#0ABF94"/>
		<stop  offset="0.9971" style="stop-color:#15EA23"/>
	</linearGradient>
	<circle style="fill:url(#SVGID_00000179630325378778308970000015617919607261341074_);" cx="330" cy="311.9" r="34"/>
	
		<linearGradient id="SVGID_00000181796110120669038490000007973800703666985136_" gradientUnits="userSpaceOnUse" x1="137.6146" y1="1052.8977" x2="984.3052" y2="143.8741" gradientTransform="matrix(1 0 0 -1 0 1024)">
		<stop  offset="0" style="stop-color:#03A4DB"/>
		<stop  offset="0.4675" style="stop-color:#0ABF94"/>
		<stop  offset="0.9971" style="stop-color:#15EA23"/>
	</linearGradient>
	<circle style="fill:url(#SVGID_00000181796110120669038490000007973800703666985136_);" cx="455" cy="311.9" r="34"/>
	
		<linearGradient id="SVGID_00000142874717693002928660000002239476615831074748_" gradientUnits="userSpaceOnUse" x1="356.6712" y1="1187.0393" x2="1302.2906" y2="171.8038" gradientTransform="matrix(1 0 0 -1 0 1024)">
		<stop  offset="0" style="stop-color:#0099F7"/>
		<stop  offset="0.1478" style="stop-color:#03A4DB"/>
		<stop  offset="0.4675" style="stop-color:#0ABF94"/>
		<stop  offset="0.9313" style="stop-color:#15EA23"/>
		<stop  offset="1" style="stop-color:#17F112"/>
	</linearGradient>
	<circle style="fill:url(#SVGID_00000142874717693002928660000002239476615831074748_);" cx="799" cy="311.9" r="56"/>
</g>
</svg>
